<mxfile host="app.diagrams.net" agent="Mozilla/5.0 (Windows NT 10.0; Win64; x64) AppleWebKit/537.36 (KHTML, like Gecko) Chrome/136.0.0.0 Safari/537.36 Edg/136.0.0.0" version="26.2.14">
  <diagram name="Страница — 1" id="XxCqZf1vbdF2sUT-V-np">
    <mxGraphModel dx="1546" dy="2035" grid="1" gridSize="10" guides="1" tooltips="1" connect="1" arrows="1" fold="1" page="1" pageScale="1" pageWidth="827" pageHeight="1169" math="0" shadow="0">
      <root>
        <mxCell id="0" />
        <mxCell id="1" parent="0" />
        <mxCell id="1l_1Ohui1OAXLo1jwIuh-1" value="Система ликвидации академических задолженностей" style="rounded=0;whiteSpace=wrap;html=1;fontFamily=Times New Roman;fontSize=14;" parent="1" vertex="1">
          <mxGeometry x="324" y="-920" width="180" height="70" as="geometry" />
        </mxCell>
        <mxCell id="ND-Zr3Mcvp1jfN4iyUee-63" style="edgeStyle=orthogonalEdgeStyle;rounded=0;orthogonalLoop=1;jettySize=auto;html=1;" parent="1" source="1l_1Ohui1OAXLo1jwIuh-2" target="ND-Zr3Mcvp1jfN4iyUee-41" edge="1">
          <mxGeometry relative="1" as="geometry" />
        </mxCell>
        <mxCell id="1l_1Ohui1OAXLo1jwIuh-2" value="Студент" style="rounded=0;whiteSpace=wrap;html=1;fontFamily=Times New Roman;fontSize=14;strokeWidth=3;" parent="1" vertex="1">
          <mxGeometry x="680" y="90" width="180" height="70" as="geometry" />
        </mxCell>
        <mxCell id="ExfXu41y4xgW8dkW9e0b-39" style="edgeStyle=orthogonalEdgeStyle;rounded=0;orthogonalLoop=1;jettySize=auto;html=1;entryX=0;entryY=0.5;entryDx=0;entryDy=0;" parent="1" source="Nsonk-Qi_ZuO93uDYVnr-1" target="ExfXu41y4xgW8dkW9e0b-36" edge="1">
          <mxGeometry relative="1" as="geometry" />
        </mxCell>
        <mxCell id="ExfXu41y4xgW8dkW9e0b-43" style="edgeStyle=orthogonalEdgeStyle;rounded=0;orthogonalLoop=1;jettySize=auto;html=1;" parent="1" source="Nsonk-Qi_ZuO93uDYVnr-1" target="Nsonk-Qi_ZuO93uDYVnr-3" edge="1">
          <mxGeometry relative="1" as="geometry" />
        </mxCell>
        <mxCell id="Nsonk-Qi_ZuO93uDYVnr-1" value="Сотрудник" style="rounded=0;whiteSpace=wrap;html=1;fontFamily=Times New Roman;fontSize=14;strokeWidth=3;" parent="1" vertex="1">
          <mxGeometry x="990" y="-550" width="180" height="70" as="geometry" />
        </mxCell>
        <mxCell id="ND-Zr3Mcvp1jfN4iyUee-58" style="edgeStyle=orthogonalEdgeStyle;rounded=0;orthogonalLoop=1;jettySize=auto;html=1;entryX=0.5;entryY=1;entryDx=0;entryDy=0;" parent="1" source="Nsonk-Qi_ZuO93uDYVnr-2" target="Nsonk-Qi_ZuO93uDYVnr-24" edge="1">
          <mxGeometry relative="1" as="geometry" />
        </mxCell>
        <mxCell id="ExfXu41y4xgW8dkW9e0b-6" style="edgeStyle=orthogonalEdgeStyle;rounded=0;orthogonalLoop=1;jettySize=auto;html=1;" parent="1" source="Nsonk-Qi_ZuO93uDYVnr-2" target="ND-Zr3Mcvp1jfN4iyUee-41" edge="1">
          <mxGeometry relative="1" as="geometry" />
        </mxCell>
        <mxCell id="Nsonk-Qi_ZuO93uDYVnr-2" value="Факультет" style="rounded=0;whiteSpace=wrap;html=1;fontFamily=Times New Roman;fontSize=14;strokeWidth=3;" parent="1" vertex="1">
          <mxGeometry x="680" y="-240" width="180" height="70" as="geometry" />
        </mxCell>
        <mxCell id="ExfXu41y4xgW8dkW9e0b-38" style="edgeStyle=orthogonalEdgeStyle;rounded=0;orthogonalLoop=1;jettySize=auto;html=1;" parent="1" source="Nsonk-Qi_ZuO93uDYVnr-3" target="ExfXu41y4xgW8dkW9e0b-24" edge="1">
          <mxGeometry relative="1" as="geometry" />
        </mxCell>
        <mxCell id="ExfXu41y4xgW8dkW9e0b-42" style="edgeStyle=orthogonalEdgeStyle;rounded=0;orthogonalLoop=1;jettySize=auto;html=1;entryX=0.5;entryY=0;entryDx=0;entryDy=0;" parent="1" source="Nsonk-Qi_ZuO93uDYVnr-3" target="Nsonk-Qi_ZuO93uDYVnr-1" edge="1">
          <mxGeometry relative="1" as="geometry" />
        </mxCell>
        <mxCell id="ExfXu41y4xgW8dkW9e0b-46" style="edgeStyle=orthogonalEdgeStyle;rounded=0;orthogonalLoop=1;jettySize=auto;html=1;" parent="1" source="Nsonk-Qi_ZuO93uDYVnr-3" target="ND-Zr3Mcvp1jfN4iyUee-70" edge="1">
          <mxGeometry relative="1" as="geometry" />
        </mxCell>
        <mxCell id="Nsonk-Qi_ZuO93uDYVnr-3" value="Ведомость о системе академической задолженности" style="rounded=0;whiteSpace=wrap;html=1;fontFamily=Times New Roman;fontSize=14;" parent="1" vertex="1">
          <mxGeometry x="990" y="-690" width="180" height="70" as="geometry" />
        </mxCell>
        <mxCell id="ND-Zr3Mcvp1jfN4iyUee-65" style="edgeStyle=orthogonalEdgeStyle;rounded=0;orthogonalLoop=1;jettySize=auto;html=1;entryX=0.5;entryY=1;entryDx=0;entryDy=0;" parent="1" source="Nsonk-Qi_ZuO93uDYVnr-24" target="ND-Zr3Mcvp1jfN4iyUee-64" edge="1">
          <mxGeometry relative="1" as="geometry" />
        </mxCell>
        <mxCell id="ExfXu41y4xgW8dkW9e0b-33" style="edgeStyle=orthogonalEdgeStyle;rounded=0;orthogonalLoop=1;jettySize=auto;html=1;" parent="1" source="Nsonk-Qi_ZuO93uDYVnr-24" target="ND-Zr3Mcvp1jfN4iyUee-52" edge="1">
          <mxGeometry relative="1" as="geometry">
            <Array as="points">
              <mxPoint x="1000" y="-385" />
            </Array>
          </mxGeometry>
        </mxCell>
        <mxCell id="ExfXu41y4xgW8dkW9e0b-34" style="edgeStyle=orthogonalEdgeStyle;rounded=0;orthogonalLoop=1;jettySize=auto;html=1;" parent="1" source="Nsonk-Qi_ZuO93uDYVnr-24" target="Nsonk-Qi_ZuO93uDYVnr-2" edge="1">
          <mxGeometry relative="1" as="geometry" />
        </mxCell>
        <mxCell id="ExfXu41y4xgW8dkW9e0b-35" style="edgeStyle=orthogonalEdgeStyle;rounded=0;orthogonalLoop=1;jettySize=auto;html=1;entryX=0.5;entryY=0;entryDx=0;entryDy=0;" parent="1" source="Nsonk-Qi_ZuO93uDYVnr-24" target="ND-Zr3Mcvp1jfN4iyUee-34" edge="1">
          <mxGeometry relative="1" as="geometry" />
        </mxCell>
        <mxCell id="Nsonk-Qi_ZuO93uDYVnr-24" value="Определение дисциплин для ликвидации академических задолженностей" style="rounded=0;whiteSpace=wrap;html=1;fontFamily=Times New Roman;fontSize=14;" parent="1" vertex="1">
          <mxGeometry x="680" y="-420" width="180" height="70" as="geometry" />
        </mxCell>
        <mxCell id="ND-Zr3Mcvp1jfN4iyUee-59" style="edgeStyle=orthogonalEdgeStyle;rounded=0;orthogonalLoop=1;jettySize=auto;html=1;entryX=0;entryY=0.5;entryDx=0;entryDy=0;" parent="1" source="ND-Zr3Mcvp1jfN4iyUee-34" target="Nsonk-Qi_ZuO93uDYVnr-24" edge="1">
          <mxGeometry relative="1" as="geometry">
            <Array as="points">
              <mxPoint x="510" y="-385" />
            </Array>
          </mxGeometry>
        </mxCell>
        <mxCell id="ExfXu41y4xgW8dkW9e0b-5" style="edgeStyle=orthogonalEdgeStyle;rounded=0;orthogonalLoop=1;jettySize=auto;html=1;entryX=0;entryY=0.5;entryDx=0;entryDy=0;" parent="1" source="ND-Zr3Mcvp1jfN4iyUee-34" target="ND-Zr3Mcvp1jfN4iyUee-41" edge="1">
          <mxGeometry relative="1" as="geometry">
            <Array as="points">
              <mxPoint x="510" y="-35" />
            </Array>
          </mxGeometry>
        </mxCell>
        <mxCell id="ND-Zr3Mcvp1jfN4iyUee-34" value="Группа" style="rounded=0;whiteSpace=wrap;html=1;fontFamily=Times New Roman;fontSize=14;strokeWidth=3;" parent="1" vertex="1">
          <mxGeometry x="420" y="-240" width="180" height="70" as="geometry" />
        </mxCell>
        <mxCell id="ND-Zr3Mcvp1jfN4iyUee-53" style="edgeStyle=orthogonalEdgeStyle;rounded=0;orthogonalLoop=1;jettySize=auto;html=1;entryX=0.5;entryY=1;entryDx=0;entryDy=0;" parent="1" source="ND-Zr3Mcvp1jfN4iyUee-41" target="ND-Zr3Mcvp1jfN4iyUee-52" edge="1">
          <mxGeometry relative="1" as="geometry" />
        </mxCell>
        <mxCell id="ND-Zr3Mcvp1jfN4iyUee-55" style="edgeStyle=orthogonalEdgeStyle;rounded=0;orthogonalLoop=1;jettySize=auto;html=1;entryX=0.5;entryY=1;entryDx=0;entryDy=0;" parent="1" source="ND-Zr3Mcvp1jfN4iyUee-41" target="Nsonk-Qi_ZuO93uDYVnr-2" edge="1">
          <mxGeometry relative="1" as="geometry" />
        </mxCell>
        <mxCell id="ND-Zr3Mcvp1jfN4iyUee-56" style="edgeStyle=orthogonalEdgeStyle;rounded=0;orthogonalLoop=1;jettySize=auto;html=1;entryX=0.5;entryY=1;entryDx=0;entryDy=0;" parent="1" source="ND-Zr3Mcvp1jfN4iyUee-41" target="ND-Zr3Mcvp1jfN4iyUee-34" edge="1">
          <mxGeometry relative="1" as="geometry" />
        </mxCell>
        <mxCell id="ND-Zr3Mcvp1jfN4iyUee-41" value="Идентификация академических задолженностей" style="rounded=0;whiteSpace=wrap;html=1;fontFamily=Times New Roman;fontSize=14;" parent="1" vertex="1">
          <mxGeometry x="680" y="-70" width="180" height="70" as="geometry" />
        </mxCell>
        <mxCell id="ND-Zr3Mcvp1jfN4iyUee-57" style="edgeStyle=orthogonalEdgeStyle;rounded=0;orthogonalLoop=1;jettySize=auto;html=1;entryX=1;entryY=0.5;entryDx=0;entryDy=0;" parent="1" source="ND-Zr3Mcvp1jfN4iyUee-52" target="Nsonk-Qi_ZuO93uDYVnr-24" edge="1">
          <mxGeometry relative="1" as="geometry">
            <Array as="points">
              <mxPoint x="1000" y="-385" />
            </Array>
          </mxGeometry>
        </mxCell>
        <mxCell id="ExfXu41y4xgW8dkW9e0b-7" style="edgeStyle=orthogonalEdgeStyle;rounded=0;orthogonalLoop=1;jettySize=auto;html=1;entryX=1;entryY=0.5;entryDx=0;entryDy=0;" parent="1" source="ND-Zr3Mcvp1jfN4iyUee-52" target="ND-Zr3Mcvp1jfN4iyUee-41" edge="1">
          <mxGeometry relative="1" as="geometry">
            <Array as="points">
              <mxPoint x="1010" y="-35" />
            </Array>
          </mxGeometry>
        </mxCell>
        <mxCell id="ND-Zr3Mcvp1jfN4iyUee-52" value="Направление подготовки" style="rounded=0;whiteSpace=wrap;html=1;fontFamily=Times New Roman;fontSize=14;strokeWidth=3;" parent="1" vertex="1">
          <mxGeometry x="920" y="-240" width="180" height="70" as="geometry" />
        </mxCell>
        <mxCell id="ExfXu41y4xgW8dkW9e0b-17" style="edgeStyle=orthogonalEdgeStyle;rounded=0;orthogonalLoop=1;jettySize=auto;html=1;entryX=0.5;entryY=1;entryDx=0;entryDy=0;" parent="1" source="ND-Zr3Mcvp1jfN4iyUee-64" target="ExfXu41y4xgW8dkW9e0b-16" edge="1">
          <mxGeometry relative="1" as="geometry" />
        </mxCell>
        <mxCell id="ExfXu41y4xgW8dkW9e0b-54" style="edgeStyle=orthogonalEdgeStyle;rounded=0;orthogonalLoop=1;jettySize=auto;html=1;entryX=0.5;entryY=0;entryDx=0;entryDy=0;" parent="1" source="ND-Zr3Mcvp1jfN4iyUee-64" target="Nsonk-Qi_ZuO93uDYVnr-24" edge="1">
          <mxGeometry relative="1" as="geometry" />
        </mxCell>
        <mxCell id="ND-Zr3Mcvp1jfN4iyUee-64" value="Составление документа &quot;Направление на пересдачу&quot;" style="rounded=0;whiteSpace=wrap;html=1;fontFamily=Times New Roman;fontSize=14;strokeWidth=3;" parent="1" vertex="1">
          <mxGeometry x="680.5" y="-690" width="180" height="70" as="geometry" />
        </mxCell>
        <mxCell id="ExfXu41y4xgW8dkW9e0b-32" style="edgeStyle=orthogonalEdgeStyle;rounded=0;orthogonalLoop=1;jettySize=auto;html=1;entryX=1;entryY=0.5;entryDx=0;entryDy=0;" parent="1" source="ND-Zr3Mcvp1jfN4iyUee-70" target="ExfXu41y4xgW8dkW9e0b-16" edge="1">
          <mxGeometry relative="1" as="geometry" />
        </mxCell>
        <mxCell id="ExfXu41y4xgW8dkW9e0b-37" style="edgeStyle=orthogonalEdgeStyle;rounded=0;orthogonalLoop=1;jettySize=auto;html=1;" parent="1" source="ND-Zr3Mcvp1jfN4iyUee-70" target="Nsonk-Qi_ZuO93uDYVnr-3" edge="1">
          <mxGeometry relative="1" as="geometry" />
        </mxCell>
        <mxCell id="ND-Zr3Mcvp1jfN4iyUee-70" value="Ликвидация академических задолженностей" style="rounded=0;whiteSpace=wrap;html=1;fontFamily=Times New Roman;fontSize=14;strokeWidth=3;" parent="1" vertex="1">
          <mxGeometry x="990" y="-920" width="180" height="70" as="geometry" />
        </mxCell>
        <mxCell id="ExfXu41y4xgW8dkW9e0b-9" value="" style="edgeStyle=orthogonalEdgeStyle;rounded=0;orthogonalLoop=1;jettySize=auto;html=1;" parent="1" source="ExfXu41y4xgW8dkW9e0b-1" target="1l_1Ohui1OAXLo1jwIuh-2" edge="1">
          <mxGeometry relative="1" as="geometry" />
        </mxCell>
        <mxCell id="ExfXu41y4xgW8dkW9e0b-1" value="" style="ellipse;whiteSpace=wrap;html=1;aspect=fixed;" parent="1" vertex="1">
          <mxGeometry x="760.5" y="10" width="19" height="19" as="geometry" />
        </mxCell>
        <mxCell id="ExfXu41y4xgW8dkW9e0b-2" value="" style="endArrow=none;html=1;rounded=0;" parent="1" edge="1">
          <mxGeometry width="50" height="50" relative="1" as="geometry">
            <mxPoint x="760" y="77" as="sourcePoint" />
            <mxPoint x="780" y="77" as="targetPoint" />
            <Array as="points">
              <mxPoint x="770" y="77" />
            </Array>
          </mxGeometry>
        </mxCell>
        <mxCell id="ExfXu41y4xgW8dkW9e0b-8" value="" style="ellipse;whiteSpace=wrap;html=1;aspect=fixed;" parent="1" vertex="1">
          <mxGeometry x="871" y="-44.5" width="19" height="19" as="geometry" />
        </mxCell>
        <mxCell id="ExfXu41y4xgW8dkW9e0b-11" value="" style="ellipse;whiteSpace=wrap;html=1;aspect=fixed;" parent="1" vertex="1">
          <mxGeometry x="761" y="-100" width="19" height="19" as="geometry" />
        </mxCell>
        <mxCell id="ExfXu41y4xgW8dkW9e0b-12" value="" style="endArrow=none;html=1;rounded=0;" parent="1" edge="1">
          <mxGeometry width="50" height="50" relative="1" as="geometry">
            <mxPoint x="1000" y="-154" as="sourcePoint" />
            <mxPoint x="1020" y="-154" as="targetPoint" />
            <Array as="points">
              <mxPoint x="1010" y="-154" />
            </Array>
          </mxGeometry>
        </mxCell>
        <mxCell id="ExfXu41y4xgW8dkW9e0b-13" value="" style="endArrow=none;html=1;rounded=0;" parent="1" edge="1">
          <mxGeometry width="50" height="50" relative="1" as="geometry">
            <mxPoint x="759.5" y="-156" as="sourcePoint" />
            <mxPoint x="779.5" y="-156" as="targetPoint" />
            <Array as="points">
              <mxPoint x="769.5" y="-156" />
            </Array>
          </mxGeometry>
        </mxCell>
        <mxCell id="ExfXu41y4xgW8dkW9e0b-14" value="" style="endArrow=none;html=1;rounded=0;" parent="1" edge="1">
          <mxGeometry width="50" height="50" relative="1" as="geometry">
            <mxPoint x="500" y="-157" as="sourcePoint" />
            <mxPoint x="520" y="-157" as="targetPoint" />
            <Array as="points">
              <mxPoint x="510" y="-157" />
            </Array>
          </mxGeometry>
        </mxCell>
        <mxCell id="ExfXu41y4xgW8dkW9e0b-15" value="" style="ellipse;whiteSpace=wrap;html=1;aspect=fixed;" parent="1" vertex="1">
          <mxGeometry x="651" y="-43.5" width="19" height="19" as="geometry" />
        </mxCell>
        <mxCell id="ExfXu41y4xgW8dkW9e0b-18" style="edgeStyle=orthogonalEdgeStyle;rounded=0;orthogonalLoop=1;jettySize=auto;html=1;entryX=0.5;entryY=0;entryDx=0;entryDy=0;" parent="1" source="ExfXu41y4xgW8dkW9e0b-16" target="ND-Zr3Mcvp1jfN4iyUee-64" edge="1">
          <mxGeometry relative="1" as="geometry" />
        </mxCell>
        <mxCell id="ExfXu41y4xgW8dkW9e0b-23" style="edgeStyle=orthogonalEdgeStyle;rounded=0;orthogonalLoop=1;jettySize=auto;html=1;entryX=0;entryY=0.5;entryDx=0;entryDy=0;" parent="1" source="ExfXu41y4xgW8dkW9e0b-16" target="ND-Zr3Mcvp1jfN4iyUee-70" edge="1">
          <mxGeometry relative="1" as="geometry" />
        </mxCell>
        <mxCell id="ExfXu41y4xgW8dkW9e0b-16" value="Приказ о назначении комиссии по ликвидации задолженностей&amp;nbsp;" style="rounded=0;whiteSpace=wrap;html=1;fontFamily=Times New Roman;fontSize=14;" parent="1" vertex="1">
          <mxGeometry x="680.5" y="-920" width="180" height="70" as="geometry" />
        </mxCell>
        <mxCell id="ExfXu41y4xgW8dkW9e0b-41" style="edgeStyle=orthogonalEdgeStyle;rounded=0;orthogonalLoop=1;jettySize=auto;html=1;entryX=0.5;entryY=0;entryDx=0;entryDy=0;" parent="1" source="ExfXu41y4xgW8dkW9e0b-24" target="ExfXu41y4xgW8dkW9e0b-36" edge="1">
          <mxGeometry relative="1" as="geometry" />
        </mxCell>
        <mxCell id="ExfXu41y4xgW8dkW9e0b-45" style="edgeStyle=orthogonalEdgeStyle;rounded=0;orthogonalLoop=1;jettySize=auto;html=1;" parent="1" source="ExfXu41y4xgW8dkW9e0b-24" edge="1">
          <mxGeometry relative="1" as="geometry">
            <mxPoint x="1170" y="-654.9999999999998" as="targetPoint" />
          </mxGeometry>
        </mxCell>
        <mxCell id="ExfXu41y4xgW8dkW9e0b-24" value="Составление рекомендаций по студентам" style="rounded=0;whiteSpace=wrap;html=1;fontFamily=Times New Roman;fontSize=14;strokeWidth=3;" parent="1" vertex="1">
          <mxGeometry x="1280" y="-690" width="180" height="70" as="geometry" />
        </mxCell>
        <mxCell id="ExfXu41y4xgW8dkW9e0b-40" style="edgeStyle=orthogonalEdgeStyle;rounded=0;orthogonalLoop=1;jettySize=auto;html=1;" parent="1" source="ExfXu41y4xgW8dkW9e0b-36" target="ExfXu41y4xgW8dkW9e0b-24" edge="1">
          <mxGeometry relative="1" as="geometry" />
        </mxCell>
        <mxCell id="ExfXu41y4xgW8dkW9e0b-44" style="edgeStyle=orthogonalEdgeStyle;rounded=0;orthogonalLoop=1;jettySize=auto;html=1;" parent="1" source="ExfXu41y4xgW8dkW9e0b-36" target="Nsonk-Qi_ZuO93uDYVnr-1" edge="1">
          <mxGeometry relative="1" as="geometry" />
        </mxCell>
        <mxCell id="ExfXu41y4xgW8dkW9e0b-36" value="Протокол заседания комиссии" style="rounded=0;whiteSpace=wrap;html=1;fontFamily=Times New Roman;fontSize=14;" parent="1" vertex="1">
          <mxGeometry x="1280" y="-550" width="180" height="70" as="geometry" />
        </mxCell>
        <mxCell id="ExfXu41y4xgW8dkW9e0b-47" value="" style="ellipse;whiteSpace=wrap;html=1;aspect=fixed;" parent="1" vertex="1">
          <mxGeometry x="871" y="-394" width="19" height="19" as="geometry" />
        </mxCell>
        <mxCell id="ExfXu41y4xgW8dkW9e0b-48" value="" style="ellipse;whiteSpace=wrap;html=1;aspect=fixed;" parent="1" vertex="1">
          <mxGeometry x="760.5" y="-340" width="19" height="19" as="geometry" />
        </mxCell>
        <mxCell id="ExfXu41y4xgW8dkW9e0b-49" value="" style="ellipse;whiteSpace=wrap;html=1;aspect=fixed;" parent="1" vertex="1">
          <mxGeometry x="651" y="-394" width="19" height="19" as="geometry" />
        </mxCell>
        <mxCell id="ExfXu41y4xgW8dkW9e0b-50" value="" style="endArrow=none;html=1;rounded=0;" parent="1" edge="1">
          <mxGeometry width="50" height="50" relative="1" as="geometry">
            <mxPoint x="990" y="-255" as="sourcePoint" />
            <mxPoint x="1010" y="-255" as="targetPoint" />
            <Array as="points">
              <mxPoint x="1000" y="-255" />
            </Array>
          </mxGeometry>
        </mxCell>
        <mxCell id="ExfXu41y4xgW8dkW9e0b-51" value="" style="endArrow=none;html=1;rounded=0;" parent="1" edge="1">
          <mxGeometry width="50" height="50" relative="1" as="geometry">
            <mxPoint x="759.5" y="-256" as="sourcePoint" />
            <mxPoint x="779.5" y="-256" as="targetPoint" />
            <Array as="points">
              <mxPoint x="769.5" y="-256" />
            </Array>
          </mxGeometry>
        </mxCell>
        <mxCell id="ExfXu41y4xgW8dkW9e0b-52" value="" style="endArrow=none;html=1;rounded=0;" parent="1" edge="1">
          <mxGeometry width="50" height="50" relative="1" as="geometry">
            <mxPoint x="500" y="-256" as="sourcePoint" />
            <mxPoint x="520" y="-256" as="targetPoint" />
            <Array as="points">
              <mxPoint x="510" y="-256" />
            </Array>
          </mxGeometry>
        </mxCell>
        <mxCell id="ExfXu41y4xgW8dkW9e0b-53" value="" style="ellipse;whiteSpace=wrap;html=1;aspect=fixed;" parent="1" vertex="1">
          <mxGeometry x="760.5" y="-451" width="19" height="19" as="geometry" />
        </mxCell>
        <mxCell id="ExfXu41y4xgW8dkW9e0b-55" value="" style="endArrow=none;html=1;rounded=0;" parent="1" edge="1">
          <mxGeometry width="50" height="50" relative="1" as="geometry">
            <mxPoint x="760.5" y="-607" as="sourcePoint" />
            <mxPoint x="780.5" y="-607" as="targetPoint" />
            <Array as="points">
              <mxPoint x="770.5" y="-607" />
            </Array>
          </mxGeometry>
        </mxCell>
        <mxCell id="ExfXu41y4xgW8dkW9e0b-56" value="" style="endArrow=none;html=1;rounded=0;" parent="1" edge="1">
          <mxGeometry width="50" height="50" relative="1" as="geometry">
            <mxPoint x="760.5" y="-704" as="sourcePoint" />
            <mxPoint x="780.5" y="-704" as="targetPoint" />
            <Array as="points">
              <mxPoint x="770.5" y="-704" />
            </Array>
          </mxGeometry>
        </mxCell>
        <mxCell id="ExfXu41y4xgW8dkW9e0b-57" value="" style="endArrow=none;html=1;rounded=0;" parent="1" edge="1">
          <mxGeometry width="50" height="50" relative="1" as="geometry">
            <mxPoint x="760.5" y="-836" as="sourcePoint" />
            <mxPoint x="780.5" y="-836" as="targetPoint" />
            <Array as="points">
              <mxPoint x="770.5" y="-836" />
            </Array>
          </mxGeometry>
        </mxCell>
        <mxCell id="ExfXu41y4xgW8dkW9e0b-58" value="" style="endArrow=none;html=1;rounded=0;" parent="1" edge="1">
          <mxGeometry width="50" height="50" relative="1" as="geometry">
            <mxPoint x="873.29" y="-875" as="sourcePoint" />
            <mxPoint x="873.29" y="-895" as="targetPoint" />
            <Array as="points">
              <mxPoint x="873.29" y="-875" />
            </Array>
          </mxGeometry>
        </mxCell>
        <mxCell id="ExfXu41y4xgW8dkW9e0b-59" value="" style="ellipse;whiteSpace=wrap;html=1;aspect=fixed;" parent="1" vertex="1">
          <mxGeometry x="960" y="-894" width="19" height="19" as="geometry" />
        </mxCell>
        <mxCell id="ExfXu41y4xgW8dkW9e0b-60" value="" style="ellipse;whiteSpace=wrap;html=1;aspect=fixed;" parent="1" vertex="1">
          <mxGeometry x="1071" y="-840" width="19" height="19" as="geometry" />
        </mxCell>
        <mxCell id="ExfXu41y4xgW8dkW9e0b-62" value="" style="endArrow=none;html=1;rounded=0;" parent="1" edge="1">
          <mxGeometry width="50" height="50" relative="1" as="geometry">
            <mxPoint x="1070" y="-704" as="sourcePoint" />
            <mxPoint x="1090" y="-704" as="targetPoint" />
            <Array as="points">
              <mxPoint x="1080" y="-704" />
            </Array>
          </mxGeometry>
        </mxCell>
        <mxCell id="ExfXu41y4xgW8dkW9e0b-63" value="" style="ellipse;whiteSpace=wrap;html=1;aspect=fixed;" parent="1" vertex="1">
          <mxGeometry x="1070" y="-580" width="19" height="19" as="geometry" />
        </mxCell>
        <mxCell id="ExfXu41y4xgW8dkW9e0b-64" value="" style="endArrow=none;html=1;rounded=0;" parent="1" edge="1">
          <mxGeometry width="50" height="50" relative="1" as="geometry">
            <mxPoint x="1070" y="-609" as="sourcePoint" />
            <mxPoint x="1090" y="-609" as="targetPoint" />
            <Array as="points">
              <mxPoint x="1080" y="-609" />
            </Array>
          </mxGeometry>
        </mxCell>
        <mxCell id="ExfXu41y4xgW8dkW9e0b-65" value="" style="ellipse;whiteSpace=wrap;html=1;aspect=fixed;" parent="1" vertex="1">
          <mxGeometry x="1181" y="-525" width="19" height="19" as="geometry" />
        </mxCell>
        <mxCell id="ExfXu41y4xgW8dkW9e0b-66" value="" style="endArrow=none;html=1;rounded=0;" parent="1" edge="1">
          <mxGeometry width="50" height="50" relative="1" as="geometry">
            <mxPoint x="1181" y="-645" as="sourcePoint" />
            <mxPoint x="1181" y="-665" as="targetPoint" />
            <Array as="points">
              <mxPoint x="1181" y="-645" />
            </Array>
          </mxGeometry>
        </mxCell>
        <mxCell id="ExfXu41y4xgW8dkW9e0b-67" value="" style="ellipse;whiteSpace=wrap;html=1;aspect=fixed;" parent="1" vertex="1">
          <mxGeometry x="1251" y="-664" width="19" height="19" as="geometry" />
        </mxCell>
        <mxCell id="ExfXu41y4xgW8dkW9e0b-68" value="" style="ellipse;whiteSpace=wrap;html=1;aspect=fixed;" parent="1" vertex="1">
          <mxGeometry x="1361" y="-610" width="19" height="19" as="geometry" />
        </mxCell>
        <mxCell id="ExfXu41y4xgW8dkW9e0b-69" value="" style="endArrow=none;html=1;rounded=0;" parent="1" edge="1">
          <mxGeometry width="50" height="50" relative="1" as="geometry">
            <mxPoint x="1360" y="-561.36" as="sourcePoint" />
            <mxPoint x="1380" y="-561.36" as="targetPoint" />
            <Array as="points">
              <mxPoint x="1370" y="-561.36" />
            </Array>
          </mxGeometry>
        </mxCell>
        <mxCell id="ExfXu41y4xgW8dkW9e0b-70" value="" style="endArrow=none;html=1;rounded=0;" parent="1" edge="1">
          <mxGeometry width="50" height="50" relative="1" as="geometry">
            <mxPoint x="1268" y="-505" as="sourcePoint" />
            <mxPoint x="1268" y="-525" as="targetPoint" />
            <Array as="points">
              <mxPoint x="1268" y="-505" />
            </Array>
          </mxGeometry>
        </mxCell>
      </root>
    </mxGraphModel>
  </diagram>
</mxfile>
